<?xml version="1.0" standalone="no"?>
<!DOCTYPE svg PUBLIC "-//W3C//DTD SVG 20010904//EN"
 "http://www.w3.org/TR/2001/REC-SVG-20010904/DTD/svg10.dtd">
<svg version="1.0" xmlns="http://www.w3.org/2000/svg"
 width="326.000000pt" height="155.000000pt" viewBox="0 0 326.000000 155.000000"
 preserveAspectRatio="xMidYMid meet">

<g transform="translate(0.000000,155.000000) scale(0.100000,-0.100000)"
fill="#000000" stroke="none">
<path d="M1276 1365 c-68 -63 -87 -191 -41 -281 l25 -49 -52 -52 c-66 -66
-129 -94 -215 -94 -80 0 -102 13 -140 83 -21 40 -39 58 -73 76 -58 29 -94 28
-158 -4 -88 -44 -98 -71 -128 -336 -13 -122 -29 -233 -34 -246 -17 -40 -12
-210 7 -242 38 -65 -28 -61 1113 -58 l1035 3 41 22 c147 78 205 277 107 366
-19 16 -123 52 -453 152 -164 50 -235 91 -242 138 -2 16 -10 22 -28 22 -36 0
-58 16 -62 45 -2 19 -9 25 -28 25 -36 0 -58 16 -62 45 -2 20 -9 25 -33 25 -36
1 -58 13 -52 28 8 22 -13 48 -33 42 -25 -8 -63 13 -56 30 8 21 -23 48 -39 35
-9 -7 -57 24 -181 120 -93 71 -174 130 -180 130 -6 0 -23 -11 -38 -25z m194
-157 c82 -62 149 -117 150 -122 0 -4 -16 -30 -35 -56 -38 -52 -43 -75 -20 -84
17 -6 35 10 79 66 24 32 30 36 47 25 26 -16 25 -21 -16 -74 -37 -49 -44 -77
-21 -86 17 -7 33 6 75 60 28 36 36 41 52 33 27 -15 24 -27 -16 -76 -39 -48
-46 -84 -16 -84 15 0 74 60 97 98 4 6 44 -19 44 -27 0 -4 -16 -29 -35 -54 -39
-52 -46 -87 -16 -87 12 0 35 21 58 50 40 52 53 59 73 35 13 -16 10 -23 -33
-77 -31 -38 -33 -71 -5 -76 11 -2 31 15 54 47 21 28 42 51 47 51 5 0 27 -14
49 -32 32 -25 102 -51 337 -124 318 -100 341 -112 341 -175 l0 -29 -410 0
c-329 0 -417 3 -443 14 -18 8 -77 60 -132 116 -145 148 -161 153 -264 91 -123
-73 -129 -74 -564 -79 -214 -2 -394 -1 -401 1 -16 6 19 338 41 384 20 43 70
73 121 73 49 0 75 -20 110 -85 40 -73 92 -98 193 -92 110 7 163 37 274 152 99
103 124 116 189 96 62 -19 80 -18 84 2 5 23 -21 43 -75 56 -52 14 -114 2 -156
-29 -24 -18 -31 -20 -38 -9 -18 28 -30 93 -24 128 8 40 34 91 48 91 5 0 75
-51 157 -112z m161 -842 c85 -76 82 -76 601 -76 252 0 458 -3 458 -7 0 -15
-66 -52 -110 -62 -67 -16 -2004 -15 -2033 1 -38 20 -46 40 -47 116 l0 72 541
0 541 0 49 -44z"/>
<path d="M614 325 c-12 -29 7 -35 122 -35 l114 0 0 25 0 25 -115 0 c-92 0
-117 -3 -121 -15z"/>
</g>
</svg>
