<?xml version="1.0" encoding="UTF-8" standalone="no"?>
<svg
   xmlns:dc="http://purl.org/dc/elements/1.1/"
   xmlns:cc="http://creativecommons.org/ns#"
   xmlns:rdf="http://www.w3.org/1999/02/22-rdf-syntax-ns#"
   xmlns:svg="http://www.w3.org/2000/svg"
   xmlns="http://www.w3.org/2000/svg"
   viewBox="0 0 793.76001 1122.5601"
   height="1122.5601"
   width="793.76001"
   xml:space="preserve"
   id="svg2"
   version="1.1"><metadata
     id="metadata8"><rdf:RDF><cc:Work
         rdf:about=""><dc:format>image/svg+xml</dc:format><dc:type
           rdf:resource="http://purl.org/dc/dcmitype/StillImage" /></cc:Work></rdf:RDF></metadata><defs
     id="defs6"><clipPath
       id="clipPath20"
       clipPathUnits="userSpaceOnUse"><path
         style="clip-rule:evenodd"
         id="path18"
         d="M 8.871e-6,0 H 595.32001 V 841.92 H 8.871e-6 Z" /></clipPath><clipPath
       id="clipPath32"
       clipPathUnits="userSpaceOnUse"><path
         style="clip-rule:evenodd"
         id="path30"
         d="M 8.871e-6,0 H 595.32001 V 841.92 H 8.871e-6 Z" /></clipPath><clipPath
       id="clipPath42"
       clipPathUnits="userSpaceOnUse"><path
         style="clip-rule:evenodd"
         id="path40"
         d="M 8.871e-6,0 H 595.32001 V 841.92 H 8.871e-6 Z" /></clipPath><clipPath
       id="clipPath54"
       clipPathUnits="userSpaceOnUse"><path
         style="clip-rule:evenodd"
         id="path52"
         d="M 8.871e-6,0 H 595.32001 V 841.92 H 8.871e-6 Z" /></clipPath><clipPath
       id="clipPath62"
       clipPathUnits="userSpaceOnUse"><path
         style="clip-rule:evenodd"
         id="path60"
         d="M 8.871e-6,0 H 595.32001 V 841.92 H 8.871e-6 Z" /></clipPath><clipPath
       id="clipPath72"
       clipPathUnits="userSpaceOnUse"><path
         style="clip-rule:evenodd"
         id="path70"
         d="M 8.871e-6,0 H 595.32001 V 841.92 H 8.871e-6 Z" /></clipPath><clipPath
       id="clipPath84"
       clipPathUnits="userSpaceOnUse"><path
         style="clip-rule:evenodd"
         id="path82"
         d="M 8.871e-6,0 H 595.32001 V 841.92 H 8.871e-6 Z" /></clipPath><clipPath
       id="clipPath96"
       clipPathUnits="userSpaceOnUse"><path
         style="clip-rule:evenodd"
         id="path94"
         d="M 8.871e-6,0 H 595.32001 V 841.92 H 8.871e-6 Z" /></clipPath><clipPath
       id="clipPath108"
       clipPathUnits="userSpaceOnUse"><path
         style="clip-rule:evenodd"
         id="path106"
         d="M 8.871e-6,0 H 595.32001 V 841.92 H 8.871e-6 Z" /></clipPath><clipPath
       id="clipPath116"
       clipPathUnits="userSpaceOnUse"><path
         style="clip-rule:evenodd"
         id="path114"
         d="M 8.871e-6,0 H 595.32001 V 841.92 H 8.871e-6 Z" /></clipPath><clipPath
       id="clipPath128"
       clipPathUnits="userSpaceOnUse"><path
         style="clip-rule:evenodd"
         id="path126"
         d="M 8.871e-6,0 H 595.32001 V 841.92 H 8.871e-6 Z" /></clipPath><clipPath
       id="clipPath144"
       clipPathUnits="userSpaceOnUse"><path
         style="clip-rule:evenodd"
         id="path142"
         d="M 8.871e-6,0 H 595.32001 V 841.92 H 8.871e-6 Z" /></clipPath><clipPath
       id="clipPath156"
       clipPathUnits="userSpaceOnUse"><path
         style="clip-rule:evenodd"
         id="path154"
         d="M 8.871e-6,0 H 595.32001 V 841.92 H 8.871e-6 Z" /></clipPath><clipPath
       id="clipPath166"
       clipPathUnits="userSpaceOnUse"><path
         style="clip-rule:evenodd"
         id="path164"
         d="M 8.871e-6,0 H 595.32001 V 841.92 H 8.871e-6 Z" /></clipPath><clipPath
       id="clipPath178"
       clipPathUnits="userSpaceOnUse"><path
         style="clip-rule:evenodd"
         id="path176"
         d="M 8.871e-6,0 H 595.32001 V 841.92 H 8.871e-6 Z" /></clipPath><clipPath
       id="clipPath192"
       clipPathUnits="userSpaceOnUse"><path
         style="clip-rule:evenodd"
         id="path190"
         d="M 8.871e-6,0 H 595.32001 V 841.92 H 8.871e-6 Z" /></clipPath><clipPath
       id="clipPath204"
       clipPathUnits="userSpaceOnUse"><path
         style="clip-rule:evenodd"
         id="path202"
         d="M 8.871e-6,0 H 595.32001 V 841.92 H 8.871e-6 Z" /></clipPath><clipPath
       id="clipPath212"
       clipPathUnits="userSpaceOnUse"><path
         style="clip-rule:evenodd"
         id="path210"
         d="M 8.871e-6,0 H 595.32001 V 841.92 H 8.871e-6 Z" /></clipPath><clipPath
       id="clipPath224"
       clipPathUnits="userSpaceOnUse"><path
         style="clip-rule:evenodd"
         id="path222"
         d="M 8.871e-6,0 H 595.32001 V 841.92 H 8.871e-6 Z" /></clipPath><clipPath
       id="clipPath236"
       clipPathUnits="userSpaceOnUse"><path
         style="clip-rule:evenodd"
         id="path234"
         d="M 8.871e-6,0 H 595.32001 V 841.92 H 8.871e-6 Z" /></clipPath><clipPath
       id="clipPath244"
       clipPathUnits="userSpaceOnUse"><path
         style="clip-rule:evenodd"
         id="path242"
         d="M 8.871e-6,0 H 595.32001 V 841.92 H 8.871e-6 Z" /></clipPath><clipPath
       id="clipPath256"
       clipPathUnits="userSpaceOnUse"><path
         style="clip-rule:evenodd"
         id="path254"
         d="M 8.871e-6,0 H 595.32001 V 841.92 H 8.871e-6 Z" /></clipPath><clipPath
       id="clipPath266"
       clipPathUnits="userSpaceOnUse"><path
         style="clip-rule:evenodd"
         id="path264"
         d="M 8.871e-6,0 H 595.32001 V 841.92 H 8.871e-6 Z" /></clipPath><clipPath
       id="clipPath274"
       clipPathUnits="userSpaceOnUse"><path
         style="clip-rule:evenodd"
         id="path272"
         d="M 8.871e-6,0 H 595.32001 V 841.92 H 8.871e-6 Z" /></clipPath><clipPath
       id="clipPath286"
       clipPathUnits="userSpaceOnUse"><path
         style="clip-rule:evenodd"
         id="path284"
         d="M 8.871e-6,0 H 595.32001 V 841.92 H 8.871e-6 Z" /></clipPath><clipPath
       id="clipPath294"
       clipPathUnits="userSpaceOnUse"><path
         style="clip-rule:evenodd"
         id="path292"
         d="M 8.871e-6,0 H 595.32001 V 841.92 H 8.871e-6 Z" /></clipPath><clipPath
       id="clipPath306"
       clipPathUnits="userSpaceOnUse"><path
         style="clip-rule:evenodd"
         id="path304"
         d="M 8.871e-6,0 H 595.32001 V 841.92 H 8.871e-6 Z" /></clipPath><clipPath
       id="clipPath318"
       clipPathUnits="userSpaceOnUse"><path
         style="clip-rule:evenodd"
         id="path316"
         d="M 8.871e-6,0 H 595.32001 V 841.92 H 8.871e-6 Z" /></clipPath><clipPath
       id="clipPath330"
       clipPathUnits="userSpaceOnUse"><path
         style="clip-rule:evenodd"
         id="path328"
         d="M 8.871e-6,0 H 595.32001 V 841.92 H 8.871e-6 Z" /></clipPath><clipPath
       id="clipPath338"
       clipPathUnits="userSpaceOnUse"><path
         style="clip-rule:evenodd"
         id="path336"
         d="M 8.871e-6,0 H 595.32001 V 841.92 H 8.871e-6 Z" /></clipPath><clipPath
       id="clipPath350"
       clipPathUnits="userSpaceOnUse"><path
         style="clip-rule:evenodd"
         id="path348"
         d="M 8.871e-6,0 H 595.32001 V 841.92 H 8.871e-6 Z" /></clipPath><clipPath
       id="clipPath358"
       clipPathUnits="userSpaceOnUse"><path
         style="clip-rule:evenodd"
         id="path356"
         d="M 8.871e-6,0 H 595.32001 V 841.92 H 8.871e-6 Z" /></clipPath><clipPath
       id="clipPath370"
       clipPathUnits="userSpaceOnUse"><path
         style="clip-rule:evenodd"
         id="path368"
         d="M 8.871e-6,0 H 595.32001 V 841.92 H 8.871e-6 Z" /></clipPath><clipPath
       id="clipPath382"
       clipPathUnits="userSpaceOnUse"><path
         style="clip-rule:evenodd"
         id="path380"
         d="M 8.871e-6,0 H 595.32001 V 841.92 H 8.871e-6 Z" /></clipPath><clipPath
       id="clipPath394"
       clipPathUnits="userSpaceOnUse"><path
         style="clip-rule:evenodd"
         id="path392"
         d="M 8.871e-6,0 H 595.32001 V 841.92 H 8.871e-6 Z" /></clipPath><clipPath
       id="clipPath402"
       clipPathUnits="userSpaceOnUse"><path
         style="clip-rule:evenodd"
         id="path400"
         d="M 8.871e-6,0 H 595.32001 V 841.92 H 8.871e-6 Z" /></clipPath><clipPath
       id="clipPath410"
       clipPathUnits="userSpaceOnUse"><path
         style="clip-rule:evenodd"
         id="path408"
         d="M 8.871e-6,0 H 595.32001 V 841.92 H 8.871e-6 Z" /></clipPath><clipPath
       id="clipPath422"
       clipPathUnits="userSpaceOnUse"><path
         style="clip-rule:evenodd"
         id="path420"
         d="M 8.871e-6,0 H 595.32001 V 841.92 H 8.871e-6 Z" /></clipPath><clipPath
       id="clipPath430"
       clipPathUnits="userSpaceOnUse"><path
         style="clip-rule:evenodd"
         id="path428"
         d="M 8.871e-6,0 H 595.32001 V 841.92 H 8.871e-6 Z" /></clipPath></defs><g
     transform="matrix(1.3333333,0,0,-1.3333333,0,1122.56)"
     id="g10"><path
       id="path12"
       style="fill:#ffffff;fill-opacity:1;fill-rule:evenodd;stroke:none"
       d="m 72.024,756.7 h 206.54 v 13.224 H 72.024 Z" /><g
       id="g14"><g
         clip-path="url(#clipPath20)"
         id="g16"><text
           id="text24"
           style="font-variant:normal;font-weight:normal;font-size:11.52000046px;font-family:ArialMT;-inkscape-font-specification:ArialMT;writing-mode:lr-tb;fill:#0000ff;fill-opacity:1;fill-rule:nonzero;stroke:none"
           transform="matrix(1,0,0,-1,72.024,759.24)"><tspan
             id="tspan22"
             y="0"
             x="0 6.3590398 9.5846395 12.81024 19.169279 24.929279 28.154881 31.38048 34.606079 40.965118 46.725121 53.08416 59.558399 67.599358 73.958397 80.317436 83.669762 89.31456 95.673599 102.03264 111.8592 115.0848 121.32864 127.08864 130.31424 132.83711 136.06271 142.42175 148.78081 155.13985 161.49889 167.85793 174.33215 180.69119 187.05025 193.40929 199.88351">https://us02web.zoom.us/j/85147031925</tspan></text>
</g></g><g
       id="g26"><g
         clip-path="url(#clipPath32)"
         id="g28" /></g><path
       id="path34"
       style="fill:#0000ff;fill-opacity:1;fill-rule:evenodd;stroke:none"
       d="m 72.024,757.18 h 206.54 v 0.84 H 72.024 Z" /><g
       id="g36"><g
         clip-path="url(#clipPath42)"
         id="g38"><text
           id="text46"
           style="font-variant:normal;font-weight:normal;font-size:12px;font-family:ArialMT;-inkscape-font-specification:ArialMT;writing-mode:lr-tb;fill:#0000ff;fill-opacity:1;fill-rule:nonzero;stroke:none"
           transform="matrix(1,0,0,-1,72.024,735.46)"><tspan
             id="tspan44"
             y="0"
             x="0 6.7080002 10.044 13.416 20.124001 26.124001 29.364 32.700001 36.071999 42.779999 48.779999 52.02 58.728001 65.328003 72.036003 74.699997 81.372002 87.372002 94.103996 100.704 107.412 113.412 116.652 123.36 127.356 133.92 137.256 139.92 142.584 145.92 152.62801 159.336 166.04401">https://dc.appleseeds.org.il/app/</tspan></text>
</g></g><g
       id="g48"><g
         clip-path="url(#clipPath54)"
         id="g50" /></g><g
       id="g56"><g
         clip-path="url(#clipPath62)"
         id="g58" /></g><path
       id="path64"
       style="fill:#0000ff;fill-opacity:1;fill-rule:evenodd;stroke:none"
       d="m 72.024,733.3 h 169.58 v 0.84 H 72.024 Z" /><g
       id="g66"><g
         clip-path="url(#clipPath72)"
         id="g68"><text
           id="text76"
           style="font-variant:normal;font-weight:normal;font-size:12px;font-family:ArialMT;-inkscape-font-specification:ArialMT;writing-mode:lr-tb;fill:#0000ff;fill-opacity:1;fill-rule:nonzero;stroke:none"
           transform="matrix(1,0,0,-1,72.024,711.46)"><tspan
             id="tspan74"
             y="0"
             x="0 6.7080002 10.044 13.416 20.124001 26.124001 29.364 32.700001 35.964001 46.032001 52.740002 55.403999 58.740002 65.339996 72.047997 78.755997 81.419998 88.092003 93.996002 100.704 107.412 114.12 120 123.336 130.06799 134.064 140.62801 143.964 146.62801 149.29201 152.62801 158.62801 165.336 172.04401 176.03999 182.03999 188.71201 192.07201 197.952 200.616 207.42 215.22 218.556 225.28799 231.996 238.59599 245.304 247.968 254.64 261.64801 268.32001 275.052 281.65201 288.35999 294.35999 301.06799 307.06799 310.40399 313.06799 319.668">https://mdl.appleseeds.org.il/course/view.php?id=426#section</tspan></text>
</g></g><g
       id="g78"><g
         clip-path="url(#clipPath84)"
         id="g80"><text
           id="text88"
           style="font-variant:normal;font-weight:normal;font-size:12px;font-family:ArialMT;-inkscape-font-specification:ArialMT;writing-mode:lr-tb;fill:#0000ff;fill-opacity:1;fill-rule:nonzero;stroke:none"
           transform="matrix(1,0,0,-1,398.71,711.46)"><tspan
             id="tspan86"
             y="0"
             x="0">-</tspan></text>
</g></g><g
       id="g90"><g
         clip-path="url(#clipPath96)"
         id="g92"><text
           id="text100"
           style="font-variant:normal;font-weight:normal;font-size:12px;font-family:ArialMT;-inkscape-font-specification:ArialMT;writing-mode:lr-tb;fill:#0000ff;fill-opacity:1;fill-rule:nonzero;stroke:none"
           transform="matrix(1,0,0,-1,402.67,711.46)"><tspan
             id="tspan98"
             y="0"
             x="0">1</tspan></text>
</g></g><g
       id="g102"><g
         clip-path="url(#clipPath108)"
         id="g104" /></g><g
       id="g110"><g
         clip-path="url(#clipPath116)"
         id="g112" /></g><path
       id="path118"
       style="fill:#0000ff;fill-opacity:1;fill-rule:evenodd;stroke:none"
       d="m 72.024,709.3 h 337.37 v 0.84001 H 72.024 Z" /><path
       id="path120"
       style="fill:#ffffff;fill-opacity:1;fill-rule:evenodd;stroke:none"
       d="m 72.024,685.3 h 450.79 v 13.2 H 72.024 Z" /><g
       id="g122"><g
         clip-path="url(#clipPath128)"
         id="g124"><text
           id="text132"
           style="font-variant:normal;font-weight:normal;font-size:11.52000046px;font-family:ArialMT;-inkscape-font-specification:ArialMT;writing-mode:lr-tb;fill:#0000ff;fill-opacity:1;fill-rule:nonzero;stroke:none"
           transform="matrix(1,0,0,-1,72.024,687.82)"><tspan
             id="tspan130"
             y="0"
             x="0 6.3590398 9.5846395 12.81024 19.169279 24.929279 28.154881 31.38048 34.606079 40.965118 47.324162 53.08416 58.844158 62.069759 68.428802 74.787842 81.146881 87.50592 90.028801 96.38784 99.613441 105.37344 111.61728 121.32864 124.55424 130.31424 136.67328 140.50945 146.86848 153.22752 159.58656 165.34656 171.7056 178.06464 184.42368 187.64928 193.40929 196.63487 202.99393 206.21951 212.57857 221.56416 229.84705 235.60704 243.99361 253.10593 261.14688 264.37247 273.35809 279.71713 286.07617 293.03424 299.39328 307.18079 313.53983 321.82272 328.29697 335.49695 338.01984 347.00543 350.23105 358.51392 364.98816 373.27103 379.63007 386.70337 394.38721 402.07104 407.70432 410.69952 414.05185 420.41089 426.76993 435.0528 442.12607">https://docs.google.com/spreadsheets/d/1QRJRGwtGu5YuKeC1YiQIU_C8FPXzff10HZR</tspan></text>
</g></g><path
       id="path134"
       style="fill:#0000ff;fill-opacity:1;fill-rule:evenodd;stroke:none"
       d="m 72.024,685.78 h 450.79 v 0.84 H 72.024 Z" /><path
       id="path136"
       style="fill:#ffffff;fill-opacity:1;fill-rule:evenodd;stroke:none"
       d="m 72.024,670.06 h 148.58 v 13.2 H 72.024 Z" /><g
       id="g138"><g
         clip-path="url(#clipPath144)"
         id="g140"><text
           id="text148"
           style="font-variant:normal;font-weight:normal;font-size:11.52000046px;font-family:ArialMT;-inkscape-font-specification:ArialMT;writing-mode:lr-tb;fill:#0000ff;fill-opacity:1;fill-rule:nonzero;stroke:none"
           transform="matrix(1,0,0,-1,72.024,672.58)"><tspan
             id="tspan146"
             y="0"
             x="0 7.6838398 14.04288 20.40192 24.353279 32.394241 39.467522 49.294079 57.335041 60.560638 66.919678 73.393921 75.916801 79.142403 85.501442 91.860481 97.620483 103.97952 110.7072 116.57088 122.92992 129.28896 133.12512 135.68256 142.00703">E95rwFmw/edit?usp=sharing</tspan></text>
</g></g><g
       id="g150"><g
         clip-path="url(#clipPath156)"
         id="g152" /></g><path
       id="path158"
       style="fill:#0000ff;fill-opacity:1;fill-rule:evenodd;stroke:none"
       d="m 72.024,670.54 h 148.58 v 0.84 H 72.024 Z" /><g
       id="g160"><g
         clip-path="url(#clipPath166)"
         id="g162"><text
           id="text170"
           style="font-variant:normal;font-weight:normal;font-size:12px;font-family:ArialMT;-inkscape-font-specification:ArialMT;writing-mode:lr-tb;fill:#0000ff;fill-opacity:1;fill-rule:nonzero;stroke:none"
           transform="matrix(1,0,0,-1,72.024,648.82)"><tspan
             id="tspan168"
             y="0"
             x="0 6.7080002 10.044 13.416 20.124001 26.124001 29.364 32.700001 36.071999 42.672001 49.380001">https://doc</tspan></text>
</g></g><g
       id="g172"><g
         clip-path="url(#clipPath178)"
         id="g174"><text
           id="text182"
           style="font-variant:normal;font-weight:normal;font-size:12px;font-family:ArialMT;-inkscape-font-specification:ArialMT;writing-mode:lr-tb;fill:#0000ff;fill-opacity:1;fill-rule:nonzero;stroke:none"
           transform="matrix(1,0,0,-1,127.46,648.82)"><tspan
             id="tspan180"
             y="0"
             x="0 6 9.3360004 15.96 22.667999 29.375999 35.976002 38.639999 45.312 48.683998 54.683998 61.284 71.351997 74.688004 80.688004 87.419998 91.416 97.980003 104.688 111.396 117.396 123.996 130.70399 137.412 140.748 146.65199 149.98801 156.72 159.96001 166.668 175.908 184.57201 190.57201 199.188 208.524 217.06799 220.40401 229.776 236.48399 243.192 250.392 257.10001 265.12799 271.836 280.5 287.172 294.63599 297.384 306.72 310.09201 318.75601 325.42801 334.09201 340.79999 348.13199 356.13599 364.07999 369.95999 373.20001 376.53601 383.26801">s.google.com/spreadsheets/d/1QRJRGwtGu5YuKeC1YiQIU_C8FPXzff10</tspan></text>
</g></g><path
       id="path184"
       style="fill:#0000ff;fill-opacity:1;fill-rule:evenodd;stroke:none"
       d="m 72.024,646.66 h 445.63 v 0.84001 H 72.024 Z" /><g
       id="g186"><g
         clip-path="url(#clipPath192)"
         id="g188"><text
           id="text196"
           style="font-variant:normal;font-weight:normal;font-size:12px;font-family:ArialMT;-inkscape-font-specification:ArialMT;writing-mode:lr-tb;fill:#0000ff;fill-opacity:1;fill-rule:nonzero;stroke:none"
           transform="matrix(1,0,0,-1,72.024,632.86)"><tspan
             id="tspan194"
             y="0"
             x="0 8.6639996 15.96 24.624001 32.627998 39.348 46.056 50.051998 58.535999 65.867996 76.043999 84.564003 87.900002 94.632004 101.34 104.004 107.34 114.048 120.648 123.312 129.98399 136.992 143.664 150.396 157.104 163.70399 170.412 177.12 183.72 190.42799 197.028">HZRE95rwFmw/edit#gid=1565697571</tspan></text>
</g></g><g
       id="g198"><g
         clip-path="url(#clipPath204)"
         id="g200" /></g><g
       id="g206"><g
         clip-path="url(#clipPath212)"
         id="g208" /></g><path
       id="path214"
       style="fill:#0000ff;fill-opacity:1;fill-rule:evenodd;stroke:none"
       d="m 72.024,630.7 h 203.9 v 0.84 h -203.9 z" /><path
       id="path216"
       style="fill:#ffffff;fill-opacity:1;fill-rule:evenodd;stroke:none"
       d="m 72.024,606.22 h 199.94 v 13.8 H 72.024 Z" /><g
       id="g218"><g
         clip-path="url(#clipPath224)"
         id="g220"><text
           id="text228"
           style="font-variant:normal;font-weight:normal;font-size:11.52000046px;font-family:ArialMT;-inkscape-font-specification:ArialMT;writing-mode:lr-tb;fill:#0000ff;fill-opacity:1;fill-rule:nonzero;stroke:none"
           transform="matrix(1,0,0,-1,72.024,608.86)"><tspan
             id="tspan226"
             y="0"
             x="0 6.3590398 9.5846395 12.81024 19.169279 24.929279 28.154881 31.38048 34.606079 40.965118 46.725121 53.08416 59.558399 67.599358 73.958397 80.317436 83.669762 89.31456 95.673599 102.03264 111.8592 115.0848 121.32864 127.08864 130.31424 132.83711 136.06271 142.42175 148.78081 155.13985 161.49889 167.85793 174.33215 180.69119 187.05025 193.40929">https://us02web.zoom.us/j/2684108560</tspan></text>
</g></g><g
       id="g230"><g
         clip-path="url(#clipPath236)"
         id="g232" /></g><g
       id="g238"><g
         clip-path="url(#clipPath244)"
         id="g240"><text
           id="text248"
           style="font-variant:normal;font-weight:normal;font-size:12px;font-family:ArialMT;-inkscape-font-specification:ArialMT;writing-mode:lr-tb;fill:#000000;fill-opacity:1;fill-rule:nonzero;stroke:none"
           transform="matrix(1,0,0,-1,275.33,608.86)"><tspan
             id="tspan246"
             y="0"
             x="0 8.6639996 15.336 22.068001 24.732 30.732 34.175999 40.175999 46.883999 53.591999 63.551998 66.792 70.260002 76.968002 80.963997 84.300003 87.528 94.236 104.196 110.904 114.9 118.824 125.532">Ranis zoom for tomorrow</tspan></text>
</g></g><g
       id="g250"><g
         clip-path="url(#clipPath256)"
         id="g252" /></g><path
       id="path258"
       style="fill:#0000ff;fill-opacity:1;fill-rule:evenodd;stroke:none"
       d="m 72.024,606.82 h 199.94 v 0.84 H 72.024 Z" /><g
       id="g260"><g
         clip-path="url(#clipPath266)"
         id="g262" /></g><g
       id="g268"><g
         clip-path="url(#clipPath274)"
         id="g270"><text
           id="text278"
           style="font-variant:normal;font-weight:normal;font-size:12px;font-family:ArialMT;-inkscape-font-specification:ArialMT;writing-mode:lr-tb;fill:#0000ff;fill-opacity:1;fill-rule:nonzero;stroke:none"
           transform="matrix(1,0,0,-1,72.024,560.83)"><tspan
             id="tspan276"
             y="0"
             x="0 6.7080002 10.044 13.416 20.124001 26.124001 29.364 32.700001 36.071999 42.779999 48.66 55.368 62.076 70.596001 77.304001 84.012001 87.348 93.251999 99.959999 106.668 116.736 119.976 126.684 132.68401 136.02 138.68401 142.02 148.752 155.35201 162.06 168.76801 175.368 182.076 188.67599 195.384 202.092 208.692">https://us02web.zoom.us/j/82673522253</tspan></text>
</g></g><g
       id="g280"><g
         clip-path="url(#clipPath286)"
         id="g282" /></g><g
       id="g288"><g
         clip-path="url(#clipPath294)"
         id="g290" /></g><path
       id="path296"
       style="fill:#0000ff;fill-opacity:1;fill-rule:evenodd;stroke:none"
       d="m 72.024,558.67 h 215.66 v 0.84003 H 72.024 Z" /><path
       id="path298"
       style="fill:#1f1f1f;fill-opacity:1;fill-rule:evenodd;stroke:none"
       d="m 70.584,533.83 h 454.27 v 14.16 H 70.584 Z" /><g
       id="g300"><g
         clip-path="url(#clipPath306)"
         id="g302"><text
           id="text310"
           style="font-variant:normal;font-weight:normal;font-size:12px;font-family:ArialMT;-inkscape-font-specification:ArialMT;writing-mode:lr-tb;fill:#ffffff;fill-opacity:1;fill-rule:nonzero;stroke:none"
           transform="matrix(1,0,0,-1,72.024,536.47)"><tspan
             id="tspan308"
             y="0"
             x="0 2.664 9.3360004 15.336 18.708 25.416 28.08 31.416 38.015999 44.723999 54.792 58.127998 64.751999 71.351997 78.059998 82.056 87.900002 91.236 97.236 103.968 113.928 123.996 130.70399 137.304">instal nom query commad </tspan></text>
</g></g><g
       id="g312"><g
         clip-path="url(#clipPath318)"
         id="g314"><text
           id="text322"
           style="font-variant:normal;font-weight:normal;font-size:10.56000042px;font-family:Consolas;-inkscape-font-specification:Consolas;writing-mode:lr-tb;fill:#dcdcaa;fill-opacity:1;fill-rule:nonzero;stroke:none"
           transform="matrix(1,0,0,-1,212.81,536.47)"><tspan
             id="tspan320"
             y="0"
             x="0 5.7600002 11.52">npm</tspan></text>
</g></g><g
       id="g324"><g
         clip-path="url(#clipPath330)"
         id="g326" /></g><g
       id="g332"><g
         clip-path="url(#clipPath338)"
         id="g334"><text
           id="text342"
           style="font-variant:normal;font-weight:normal;font-size:10.56000042px;font-family:Consolas;-inkscape-font-specification:Consolas;writing-mode:lr-tb;fill:#ce9178;fill-opacity:1;fill-rule:nonzero;stroke:none"
           transform="matrix(1,0,0,-1,235.85,536.47)"><tspan
             id="tspan340"
             y="0"
             x="0">i</tspan></text>
</g></g><g
       id="g344"><g
         clip-path="url(#clipPath350)"
         id="g346" /></g><g
       id="g352"><g
         clip-path="url(#clipPath358)"
         id="g354"><text
           id="text362"
           style="font-variant:normal;font-weight:normal;font-size:10.56000042px;font-family:Consolas;-inkscape-font-specification:Consolas;writing-mode:lr-tb;fill:#ce9178;fill-opacity:1;fill-rule:nonzero;stroke:none"
           transform="matrix(1,0,0,-1,247.37,536.47)"><tspan
             id="tspan360"
             y="0"
             x="0 5.7600002 11.52 17.280001 23.040001 28.799999 34.560001 40.32 46.080002 51.84 57.705601 63.465599 69.225601 74.985603 80.745598">@tanstack/react</tspan></text>
</g></g><g
       id="g364"><g
         clip-path="url(#clipPath370)"
         id="g366"><text
           id="text374"
           style="font-variant:normal;font-weight:normal;font-size:10.56000042px;font-family:Consolas;-inkscape-font-specification:Consolas;writing-mode:lr-tb;fill:#ce9178;fill-opacity:1;fill-rule:nonzero;stroke:none"
           transform="matrix(1,0,0,-1,333.91,536.47)"><tspan
             id="tspan372"
             y="0"
             x="0">-</tspan></text>
</g></g><g
       id="g376"><g
         clip-path="url(#clipPath382)"
         id="g378"><text
           id="text386"
           style="font-variant:normal;font-weight:normal;font-size:10.56000042px;font-family:Consolas;-inkscape-font-specification:Consolas;writing-mode:lr-tb;fill:#ce9178;fill-opacity:1;fill-rule:nonzero;stroke:none"
           transform="matrix(1,0,0,-1,339.67,536.47)"><tspan
             id="tspan384"
             y="0"
             x="0 5.7600002 11.52 17.280001 23.040001">query</tspan></text>
</g></g><g
       id="g388"><g
         clip-path="url(#clipPath394)"
         id="g390" /></g><g
       id="g396"><g
         clip-path="url(#clipPath402)"
         id="g398" /></g><g
       id="g404"><g
         clip-path="url(#clipPath410)"
         id="g406"><text
           id="text414"
           style="font-variant:normal;font-weight:normal;font-size:12px;font-family:ArialMT;-inkscape-font-specification:ArialMT;writing-mode:lr-tb;fill:#000000;fill-opacity:1;fill-rule:nonzero;stroke:none"
           transform="matrix(1,0,0,-1,72.024,514.63)"><tspan
             id="tspan412"
             y="0"
             x="0 6.7080002 13.416 23.375999 26.712 32.712002 36.708 43.403999 50.112 53.352001 60.060001 63.396 69.300003 71.963997 75.300003 82.008003 94.236 96.900002 103.572 106.836 113.544 119.424">npm create vite@latest</tspan></text>
</g></g><g
       id="g416"><g
         clip-path="url(#clipPath422)"
         id="g418" /></g><g
       id="g424"><g
         clip-path="url(#clipPath430)"
         id="g426" /></g></g></svg>