<?xml version="1.0" standalone="no"?>
<!DOCTYPE svg PUBLIC "-//W3C//DTD SVG 20010904//EN"
 "http://www.w3.org/TR/2001/REC-SVG-20010904/DTD/svg10.dtd">
<svg version="1.0" xmlns="http://www.w3.org/2000/svg"
 width="259.000000pt" height="194.000000pt" viewBox="0 0 259.000000 194.000000"
 preserveAspectRatio="xMidYMid meet">

<g transform="translate(0.000000,194.000000) scale(0.100000,-0.100000)"
fill="#000000" stroke="none">
<path d="M1205 1586 c-57 -26 -105 -101 -105 -166 l0 -30 -65 0 c-59 0 -65 -2
-65 -21 0 -11 -9 -32 -20 -46 -11 -14 -20 -31 -20 -37 0 -8 2 -8 8 0 12 18 49
34 65 28 17 -6 39 -52 32 -65 -4 -5 -1 -9 4 -9 6 0 11 -7 11 -15 0 -29 50 -49
127 -51 l73 -2 0 28 c0 15 8 38 19 51 16 20 21 21 34 11 9 -7 22 -33 30 -57
l15 -43 -39 -18 c-24 -10 -36 -21 -30 -27 5 -5 20 -3 39 7 28 14 42 13 42 -6
0 -4 -16 -14 -36 -23 -19 -8 -33 -19 -30 -24 4 -6 20 -4 40 4 29 12 35 12 39
1 4 -9 -5 -19 -24 -26 -38 -16 -50 -35 -18 -28 13 3 32 9 42 13 11 5 17 3 17
-7 0 -7 -13 -19 -30 -25 -16 -6 -30 -17 -30 -23 0 -7 7 -10 16 -6 61 24 93 10
34 -14 -33 -14 -42 -36 -10 -26 11 3 29 9 40 12 33 10 23 -16 -10 -27 -16 -6
-30 -15 -30 -20 0 -12 12 -11 46 1 24 9 31 6 75 -35 42 -39 45 -45 26 -46 -12
-1 1 -5 28 -9 28 -4 62 -10 75 -14 14 -4 20 -4 14 1 -6 4 -14 37 -18 73 -4 36
-18 130 -32 210 -24 138 -27 244 -8 294 5 12 -5 16 -58 18 l-63 3 -6 52 c-4
28 -17 66 -29 83 -44 61 -144 88 -215 56z m177 -64 c32 -35 38 -48 38 -87 l0
-45 -145 0 -145 0 0 33 c0 44 30 97 71 125 28 20 43 23 88 19 48 -3 59 -9 93
-45z"/>
<path d="M934 800 l-2 -146 107 -1 c58 0 153 -8 211 -17 148 -24 277 -23 332
2 24 10 52 29 62 41 l19 21 -49 -22 c-64 -28 -210 -31 -298 -4 -50 15 -71 30
-150 106 -57 55 -119 104 -162 128 l-69 38 -1 -146z"/>
<path d="M1045 922 c76 -42 136 -86 180 -132 44 -46 103 -86 112 -76 4 3 2 6
-3 6 -13 0 -44 23 -126 97 -62 56 -181 133 -204 133 -5 0 14 -13 41 -28z"/>
<path d="M1388 693 c7 -3 16 -2 19 1 4 3 -2 6 -13 5 -11 0 -14 -3 -6 -6z"/>
<path d="M1598 693 c7 -3 16 -2 19 1 4 3 -2 6 -13 5 -11 0 -14 -3 -6 -6z"/>
<path d="M1463 683 c20 -2 54 -2 75 0 20 2 3 4 -38 4 -41 0 -58 -2 -37 -4z"/>
<path d="M631 551 c-15 -26 -4 -50 26 -57 26 -7 29 -42 2 -36 -30 7 -34 7 -34
-8 0 -31 79 -23 90 9 8 27 -3 48 -31 55 -26 7 -28 31 -3 31 29 0 23 20 -8 23
-23 2 -34 -2 -42 -17z"/>
<path d="M750 500 c0 -63 2 -70 20 -70 16 0 20 7 20 30 0 25 4 30 25 30 21 0
25 -5 25 -30 0 -23 4 -30 20 -30 18 0 20 7 20 70 0 63 -2 70 -20 70 -16 0 -20
-7 -20 -30 0 -25 -4 -30 -25 -30 -21 0 -25 5 -25 30 0 23 -4 30 -20 30 -18 0
-20 -7 -20 -70z"/>
<path d="M931 544 c-12 -15 -21 -34 -21 -44 0 -34 39 -70 75 -70 36 0 75 36
75 70 0 34 -39 70 -75 70 -24 0 -39 -7 -54 -26z m84 -44 c0 -31 -3 -35 -28
-38 -31 -4 -43 14 -33 54 5 20 12 25 34 22 24 -3 27 -7 27 -38z"/>
<path d="M1100 500 l0 -70 40 0 c29 0 40 4 40 15 0 9 -9 15 -25 15 -16 0 -25
6 -25 15 0 9 9 15 25 15 14 0 25 5 25 10 0 6 -11 10 -25 10 -16 0 -25 6 -25
15 0 9 9 15 25 15 16 0 25 6 25 15 0 11 -11 15 -40 15 l-40 0 0 -70z"/>
<path d="M1221 551 c-15 -26 -4 -50 26 -57 26 -7 29 -42 2 -36 -30 7 -34 7
-34 -8 0 -31 79 -23 90 9 8 27 -3 48 -31 55 -26 7 -28 31 -3 31 29 0 23 20 -8
23 -23 2 -34 -2 -42 -17z"/>
<path d="M1410 555 c-18 -21 -8 -48 23 -63 36 -18 35 -36 -2 -29 -20 4 -31 2
-34 -8 -6 -15 13 -25 47 -25 53 0 65 64 16 83 -34 13 -35 33 -1 30 13 -2 21 3
21 12 0 20 -53 20 -70 0z"/>
<path d="M1530 500 c0 -56 3 -70 15 -70 10 0 15 10 15 31 0 27 3 30 28 27 21
-2 28 -9 30 -30 2 -16 9 -28 18 -28 11 0 14 16 14 70 0 54 -3 70 -14 70 -9 0
-16 -12 -18 -27 -2 -22 -8 -28 -28 -28 -20 0 -26 6 -28 28 -2 15 -9 27 -18 27
-11 0 -14 -16 -14 -70z"/>
<path d="M1710 550 c-42 -42 -12 -120 48 -120 46 0 72 25 72 70 0 29 -6 43
-22 54 -31 22 -74 20 -98 -4z m84 -32 c8 -13 8 -23 0 -35 -16 -26 -51 -28 -64
-4 -25 47 36 83 64 39z"/>
<path d="M1870 500 c0 -54 3 -70 14 -70 8 0 16 10 18 22 2 17 11 24 33 28 24
4 31 11 33 33 5 39 -14 57 -59 57 l-39 0 0 -70z m70 25 c0 -8 -9 -15 -20 -15
-11 0 -20 7 -20 15 0 8 9 15 20 15 11 0 20 -7 20 -15z"/>
<path d="M954 389 c-4 -7 1 -16 12 -22 17 -10 17 -11 -1 -18 -19 -7 -18 -8 3
-8 23 -1 31 22 11 35 -8 4 -7 9 2 15 11 7 10 9 -3 9 -9 0 -20 -5 -24 -11z"/>
<path d="M1010 370 c0 -25 4 -30 23 -29 12 0 16 3 10 6 -7 2 -13 16 -13 29 0
13 -4 24 -10 24 -5 0 -10 -13 -10 -30z"/>
<path d="M1064 385 c-9 -23 3 -45 24 -45 25 0 44 23 36 44 -8 20 -53 21 -60 1z
m46 -15 c0 -11 -7 -20 -15 -20 -8 0 -15 9 -15 20 0 11 7 20 15 20 8 0 15 -9
15 -20z"/>
<path d="M1146 385 c-10 -26 5 -46 32 -43 28 3 43 28 17 28 -9 0 -13 -4 -10
-10 3 -5 -1 -10 -9 -10 -25 0 -19 38 7 43 20 4 19 4 -4 6 -16 0 -29 -5 -33
-14z"/>
<path d="M1232 371 c-9 -27 -9 -28 19 -27 16 1 29 2 29 3 0 1 -4 13 -10 27
-12 34 -26 33 -38 -3z m28 -1 c0 -5 -4 -10 -10 -10 -5 0 -10 5 -10 10 0 6 5
10 10 10 6 0 10 -4 10 -10z"/>
<path d="M1301 368 c0 -25 2 -28 8 -15 6 17 8 17 20 3 20 -24 31 -19 31 14 0
31 -20 43 -20 13 -1 -17 -1 -17 -14 0 -19 25 -26 21 -25 -15z"/>
<path d="M1411 370 c0 -28 2 -32 10 -17 5 9 14 17 19 17 5 0 11 -8 13 -17 3
-10 5 -2 5 17 0 19 -2 29 -5 23 -2 -7 -11 -13 -18 -13 -7 0 -16 6 -18 13 -3 6
-6 -4 -6 -23z"/>
<path d="M1485 370 c0 -23 4 -30 20 -30 17 0 17 2 5 10 -13 9 -13 11 0 20 13
9 13 10 0 10 -13 0 -13 1 0 10 12 8 12 10 -5 10 -16 0 -20 -7 -20 -30z"/>
<path d="M1540 368 c0 -22 3 -29 9 -19 6 9 11 10 15 2 12 -19 22 -12 21 17 -1
20 -7 28 -23 30 -19 3 -22 -1 -22 -30z m30 12 c0 -5 -2 -10 -4 -10 -3 0 -8 5
-11 10 -3 6 -1 10 4 10 6 0 11 -4 11 -10z"/>
<path d="M1600 370 c0 -24 4 -30 23 -30 18 0 19 2 7 10 -13 9 -13 11 0 20 13
9 13 10 0 10 -13 0 -13 1 0 10 12 8 11 10 -7 10 -19 0 -23 -6 -23 -30z"/>
</g>
</svg>
